<svg width="77" height="68" viewBox="0 0 77 68" fill="none" xmlns="http://www.w3.org/2000/svg">
<path d="M45.9072 66.5242H11.434C5.70554 66.5242 1 62.3437 1 57.2544V10.2697C1 5.18046 5.70554 1 11.434 1H46.0095C51.738 1 56.4435 5.18046 56.4435 10.2697V57.3453C56.3412 62.3437 51.6357 66.5242 45.9072 66.5242Z" stroke="#233770" stroke-width="2" stroke-miterlimit="10" stroke-linecap="round"/>
<path d="M49.5898 51.2014C46.6664 44.5482 40.618 39.8103 33.2592 38.2982C32.8559 38.7014 32.3519 39.9111 31.9487 40.6168C31.0414 42.5321 30.235 44.2458 28.8237 44.2458C27.4124 44.2458 26.5051 42.6329 25.3963 40.7176C24.993 39.9111 24.2874 38.6006 23.8842 38.2982C16.6261 39.8103 10.6785 44.649 7.85596 51.2014" stroke="#233770" stroke-width="2" stroke-miterlimit="10" stroke-linecap="round"/>
<path d="M28.7228 33.5604C22.1704 33.5604 16.9285 28.2176 16.9285 21.766C16.9285 15.2136 22.2712 9.97168 28.7228 9.97168C35.2752 9.97168 40.5172 15.3144 40.5172 21.766C40.618 28.2176 35.2752 33.5604 28.7228 33.5604Z" stroke="#233770" stroke-width="2" stroke-miterlimit="10" stroke-linecap="round"/>
<path d="M40.0125 22.27C39.0045 22.27 29.0246 19.4474 26.2021 15.8184C26.1013 15.8184 24.69 15.516 17.5327 21.262" stroke="#233770" stroke-width="2" stroke-miterlimit="10" stroke-linecap="round"/>
<path d="M36.2825 39.2053C47.976 37.29 42.7341 23.1771 39.105 15.9191" stroke="#233770" stroke-width="2" stroke-miterlimit="10" stroke-linecap="round"/>
<path d="M24.9929 25.1934C25.5978 26.6046 27.009 27.6127 28.7228 27.6127C30.3357 27.6127 31.7469 26.6046 32.4526 25.1934" stroke="#233770" stroke-width="2" stroke-miterlimit="10" stroke-linecap="round"/>
<path d="M21.2633 39.2053C9.56975 37.29 14.8117 23.1771 18.4407 15.9191" stroke="#233770" stroke-width="2" stroke-miterlimit="10" stroke-linecap="round"/>
<path d="M62.6934 45.7583C70.0424 45.7583 75.9999 39.8008 75.9999 32.4518C75.9999 25.1029 70.0424 19.1454 62.6934 19.1454C55.3445 19.1454 49.387 25.1029 49.387 32.4518C49.387 39.8008 55.3445 45.7583 62.6934 45.7583Z" fill="#EAD0ED" stroke="#233770" stroke-width="2" stroke-miterlimit="10" stroke-linecap="round"/>
<path d="M55.8391 33.6614L59.6698 37.3912L69.6496 27.4114" stroke="#233770" stroke-width="2" stroke-miterlimit="10" stroke-linecap="round"/>
</svg>
